<svg width="81" height="25" viewBox="0 0 81 25" fill="none" xmlns="http://www.w3.org/2000/svg">
<path d="M6.69995 3.10005H13.3C13.9 3.10005 15.7 2.90005 16.5 5.70005C17.1 7.50005 17.9 10.3 19.1 14.5H19.5C20.7 10.1 21.7 7.10005 22.1 5.70005C22.9 2.90005 24.9 3.10005 25.7 3.10005H31.9V22.3H25.5V10.9H25.1L21.7 22.3H16.9L13.5 10.9H12.9V22.3H6.69995M34.5 3.10005H40.9V14.5H41.5L45.7 5.10005C46.5 3.30005 48.3 3.10005 48.3 3.10005H54.3V22.3H47.9V10.9H47.5L43.3 20.3C42.5 22.1 40.5 22.3 40.5 22.3H34.5M62.9 16.5V22.3H56.9V12.3H76.5C75.7 14.7 72.9 16.5 69.7 16.5" fill="#4F4255"/>
<path d="M76.9 11.1C77.7 7.49998 75.3 3.09998 70.1 3.09998H56.5C56.9 7.29998 60.5 11.1 64.3 11.1" fill="#4F4255"/>
</svg>
