<svg width="49" height="25" viewBox="0 0 49 25" fill="none" xmlns="http://www.w3.org/2000/svg">
<g clip-path="url(#clip0_1_64)">
<path d="M42.0062 7.35074V13.2183H39.9023V9.10234H37.8764V13.2183H35.7725V7.35034H42.0062V7.35074Z" fill="#4F4255"/>
<path fill-rule="evenodd" clip-rule="evenodd" d="M31.4511 13.4281C33.3345 13.4281 34.7332 12.2781 34.7332 10.5347C34.7332 8.84733 33.7013 7.75173 31.9767 7.75173C31.1808 7.75173 30.524 8.03073 30.0294 8.51213C30.1475 7.51713 30.9924 6.79073 31.9227 6.79073C32.1374 6.79073 33.7537 6.78733 33.7537 6.78733L34.6677 5.04553C34.6677 5.04553 32.6384 5.09153 31.6951 5.09153C29.5397 5.12893 28.0839 7.07993 28.0839 9.44953C28.0839 12.2101 29.5038 13.4281 31.4511 13.4281ZM31.4625 9.29453C32.1619 9.29453 32.6467 9.75213 32.6467 10.5345C32.6467 11.2387 32.2159 11.8189 31.4625 11.8205C30.7419 11.8205 30.2571 11.2829 30.2571 10.5465C30.2571 9.76393 30.7419 9.29453 31.4625 9.29453Z" fill="#4F4255"/>
<path d="M26.3717 11.2538C26.3717 11.2538 25.8748 11.539 25.1327 11.593C24.2796 11.6182 23.5194 11.0816 23.5194 10.1282C23.5194 9.19824 24.1902 8.66524 25.1112 8.66524C25.676 8.66524 26.4231 9.05504 26.4231 9.05504C26.4231 9.05504 26.9698 8.05604 27.253 7.55644C26.7344 7.16504 26.0437 6.95044 25.2404 6.95044C23.2129 6.95044 21.6426 8.26684 21.6426 10.1164C21.6426 11.9896 23.1185 13.2754 25.2404 13.2366C25.8334 13.2146 26.6516 13.0072 27.1503 12.6882L26.3717 11.2538Z" fill="#4F4255"/>
<path d="M0.5 5.724L3.41856 10.919V14.0878L0.503414 19.2726L0.5 5.724Z" fill="#4F4255"/>
<path d="M11.7061 9.02865L14.4408 7.35945L20.0378 7.35425L11.7061 12.437V9.02865Z" fill="#4F4255"/>
<path d="M11.6902 5.6934L11.7057 12.5714L8.78027 10.7814V0.5L11.6902 5.6934Z" fill="#4F4255"/>
<path d="M20.0374 7.3542L14.4403 7.3594L11.6902 5.6934L8.78027 0.5L20.0374 7.3542Z" fill="#4F4255"/>
<path d="M11.7057 19.3015V15.9645L8.78027 14.2085L8.78188 24.5001L11.7057 19.3015Z" fill="#4F4255"/>
<path d="M14.4341 17.6474L3.41836 10.919L0.5 5.724L20.026 17.6406L14.4341 17.6474Z" fill="#4F4255"/>
<path d="M8.78223 24.5L11.7056 19.3014L14.4336 17.6474L20.0255 17.6406L8.78223 24.5Z" fill="#4F4255"/>
<path d="M0.50293 19.2726L8.80412 14.2086L6.01329 12.5034L3.41808 14.0878L0.50293 19.2726Z" fill="#4F4255"/>
<path d="M23.52 17.1674C23.4557 17.249 23.3711 17.3106 23.2697 17.3522C23.1657 17.3944 23.0543 17.4158 22.942 17.4154C22.8302 17.4169 22.7191 17.3983 22.614 17.3606C22.5196 17.3264 22.4333 17.2732 22.3605 17.2042C22.2887 17.1351 22.2323 17.0516 22.195 16.9594C22.1547 16.8583 22.1346 16.7503 22.1358 16.6416C22.1358 16.5336 22.1545 16.4336 22.1932 16.3388C22.2304 16.2438 22.2844 16.1624 22.3521 16.094C22.4198 16.0242 22.5009 15.971 22.5921 15.9294C22.6851 15.8894 22.7865 15.8678 22.898 15.8678C23.0181 15.8678 23.1295 15.8828 23.231 15.9126C23.3324 15.9426 23.4185 15.9926 23.4894 16.0626L23.3661 16.2706C23.3065 16.2167 23.2362 16.1759 23.1599 16.1506C23.0873 16.1273 23.0114 16.1155 22.9351 16.1158C22.8676 16.1158 22.8034 16.129 22.7409 16.154C22.6794 16.1787 22.6231 16.2148 22.5752 16.2606C22.5263 16.3076 22.4877 16.3643 22.462 16.427C22.4332 16.4918 22.4198 16.5634 22.4198 16.6432C22.4198 16.7248 22.4348 16.798 22.4636 16.8612C22.4925 16.9262 22.5312 16.9812 22.5802 17.0276C22.6293 17.0744 22.6867 17.1092 22.7526 17.1326C22.8186 17.1576 22.8879 17.1692 22.9622 17.1692C23.0534 17.1692 23.1364 17.1508 23.2073 17.1158C23.2775 17.082 23.3406 17.0351 23.3932 16.9778L23.52 17.1674ZM23.868 17.3804V15.8994H24.1351V17.0028L25.0037 15.8994H25.2709V17.3806H25.0037V16.2772L24.1351 17.3806L23.868 17.3804ZM27.0402 17.1674C26.9745 17.2497 26.8883 17.3134 26.7902 17.3522C26.6861 17.3943 26.5746 17.4158 26.4622 17.4154C26.3505 17.4169 26.2395 17.3983 26.1345 17.3606C26.04 17.3264 25.9536 17.2732 25.8808 17.2042C25.809 17.1351 25.7526 17.0516 25.7153 16.9594C25.675 16.8583 25.6548 16.7503 25.6561 16.6416C25.6561 16.5336 25.6747 16.4336 25.7135 16.3388C25.7509 16.2438 25.8049 16.1624 25.8724 16.094C25.94 16.0242 26.0212 15.971 26.1124 15.9294C26.2087 15.8871 26.313 15.8661 26.4182 15.8678C26.5383 15.8678 26.6498 15.8828 26.7512 15.9126C26.8527 15.9426 26.9388 15.9926 27.0099 16.0626L26.8864 16.2706C26.8268 16.2167 26.7567 16.1758 26.6803 16.1506C26.6077 16.1273 26.5319 16.1155 26.4556 16.1158C26.3213 16.1162 26.1924 16.168 26.0955 16.2606C26.047 16.308 26.0085 16.3645 25.9822 16.427C25.9535 16.4918 25.94 16.5634 25.94 16.6432C25.94 16.7248 25.9553 16.798 25.984 16.8612C26.0127 16.9262 26.0515 16.9812 26.1005 17.0276C26.1495 17.0744 26.2072 17.1092 26.273 17.1326C26.3389 17.1558 26.4082 17.1692 26.4825 17.1692C26.5739 17.1692 26.655 17.1508 26.7275 17.1158C26.7978 17.082 26.8609 17.0351 26.9135 16.9778L27.0402 17.1674ZM27.1772 15.8994H28.5477V16.1624H27.9968V17.3804H27.7297V16.1624H27.1788V15.8994H27.1772Z" fill="#4F4255"/>
<path fill-rule="evenodd" clip-rule="evenodd" d="M29.7952 17.3656C29.8966 17.334 29.9828 17.2856 30.0571 17.2192L29.9759 17.0128C29.9269 17.0562 29.8611 17.0928 29.7817 17.1228C29.7022 17.1528 29.6126 17.1676 29.5146 17.1676C29.3676 17.1676 29.2459 17.1294 29.1495 17.0512C29.0533 16.9728 29.0009 16.8632 28.989 16.7232H30.145C30.1569 16.6716 30.1619 16.6134 30.1619 16.5452C30.1619 16.4436 30.1432 16.3522 30.1061 16.269C30.0715 16.1882 30.021 16.1152 29.9575 16.0542C29.8931 15.9938 29.8172 15.9469 29.7343 15.9162C29.6476 15.8827 29.5553 15.8657 29.4622 15.8662C29.3371 15.8662 29.2272 15.8878 29.131 15.9278C29.0401 15.9659 28.9578 16.022 28.8892 16.0926C28.8226 16.1629 28.7715 16.2462 28.739 16.3372C28.7033 16.4342 28.6855 16.5368 28.6866 16.64C28.6866 16.7566 28.7069 16.863 28.744 16.958C28.7802 17.05 28.8355 17.1334 28.9063 17.2026C28.9756 17.2706 29.0599 17.3224 29.1597 17.359C29.2666 17.3968 29.3794 17.4153 29.4927 17.4138C29.5954 17.4132 29.6974 17.3968 29.7952 17.3656ZM29.1192 16.2256C29.2019 16.1508 29.3118 16.1142 29.4504 16.1142C29.5805 16.1142 29.6853 16.1492 29.7614 16.2192C29.8376 16.289 29.8779 16.3856 29.8848 16.5086H28.9722C28.9851 16.3997 29.0373 16.299 29.1192 16.2256Z" fill="#4F4255"/>
<path d="M30.5244 15.8994H30.7678L31.3458 16.6334L31.8933 15.8994H32.1299V17.3806H31.863V16.3006L31.3424 16.9878H31.3322L30.7915 16.3004V17.3804H30.5244V15.8994Z" fill="#4F4255"/>
<path fill-rule="evenodd" clip-rule="evenodd" d="M32.8572 15.9042C32.7762 15.9253 32.6987 15.9584 32.6275 16.0022L32.6984 16.2122C32.7592 16.1822 32.8201 16.1572 32.8809 16.1356C32.9418 16.1138 33.0195 16.1038 33.1125 16.1038C33.1868 16.1038 33.246 16.1156 33.2916 16.1388C33.3372 16.1604 33.371 16.1938 33.3947 16.2338C33.4184 16.2738 33.4336 16.3236 33.4421 16.3818C33.4505 16.44 33.4539 16.5032 33.4539 16.5716C33.3993 16.5337 33.337 16.5081 33.2713 16.4966C33.2079 16.4841 33.1434 16.4774 33.0787 16.4766C32.9992 16.4766 32.9249 16.4884 32.8538 16.5082C32.7829 16.5282 32.7221 16.5582 32.6731 16.5982C32.623 16.6382 32.5826 16.6887 32.5548 16.7462C32.525 16.8092 32.5099 16.8781 32.5108 16.9476C32.5108 17.0924 32.5532 17.2056 32.6375 17.2856C32.7221 17.3654 32.8335 17.4052 32.9721 17.4052C33.0972 17.4052 33.197 17.3836 33.2729 17.3404C33.3491 17.297 33.4099 17.2472 33.4539 17.1906V17.382H33.7039V16.4734C33.7039 16.2802 33.6618 16.1306 33.5756 16.0256C33.4911 15.9208 33.3406 15.8676 33.1277 15.8676C33.033 15.8676 32.9434 15.8808 32.8572 15.9042ZM33.3037 17.1042C33.2428 17.1474 33.1633 17.1672 33.0653 17.1672C32.9791 17.1672 32.9114 17.1456 32.8642 17.104C32.8168 17.0608 32.7932 17.0042 32.7932 16.9342C32.7932 16.8928 32.8016 16.8578 32.8203 16.8262C32.8389 16.7946 32.8642 16.7696 32.893 16.7496C32.9244 16.7287 32.9593 16.7135 32.996 16.7046C33.035 16.6946 33.0737 16.6896 33.1143 16.6896C33.2462 16.6896 33.3593 16.7212 33.4523 16.7878V16.9758C33.4085 17.0247 33.3585 17.068 33.3037 17.1042ZM36.0618 15.3782C36.1158 15.3534 36.1664 15.3118 36.2138 15.2502L36.0684 15.0422C36.0312 15.0922 35.9891 15.127 35.9417 15.1454C35.8914 15.165 35.8394 15.1795 35.7862 15.1886L35.7356 15.1976C35.6916 15.2052 35.6444 15.2136 35.5936 15.222C35.5121 15.237 35.4327 15.2616 35.357 15.2952C35.2369 15.3468 35.1407 15.4166 35.068 15.5048C34.9953 15.593 34.9379 15.6928 34.8989 15.8028C34.8595 15.9143 34.8328 16.0298 34.8196 16.1472C34.8059 16.2672 34.7993 16.3818 34.7993 16.4916C34.7993 16.6332 34.8178 16.7612 34.8549 16.876C34.8923 16.991 34.9445 17.0874 35.0138 17.1656C35.0831 17.2456 35.166 17.3056 35.264 17.3488C35.3621 17.392 35.4719 17.4136 35.5952 17.4136C35.7085 17.4136 35.8133 17.392 35.9079 17.352C35.9991 17.3136 36.0818 17.2577 36.1513 17.1874C36.2188 17.119 36.2731 17.0374 36.3102 16.946C36.349 16.8544 36.3676 16.7562 36.3676 16.653C36.3676 16.5416 36.3508 16.4402 36.3186 16.3502C36.289 16.2644 36.2419 16.1857 36.1801 16.119C36.1181 16.0535 36.0425 16.0023 35.9585 15.969C35.866 15.9328 35.7673 15.9147 35.6679 15.9158C35.6037 15.9158 35.5412 15.9242 35.4803 15.9408C35.4212 15.9575 35.3643 15.9815 35.3112 16.0124C35.2597 16.0418 35.2126 16.0782 35.1711 16.1204C35.1305 16.1622 35.0967 16.2088 35.073 16.262H35.0662C35.0714 16.1938 35.0799 16.124 35.0949 16.0524C35.1102 15.9808 35.1321 15.9124 35.161 15.8476C35.1897 15.7828 35.2269 15.7244 35.2725 15.6712C35.3214 15.6175 35.3813 15.575 35.4482 15.5464C35.5218 15.5115 35.5996 15.4864 35.6798 15.4716L35.7328 15.462C35.7856 15.4524 35.836 15.4432 35.8842 15.4332C35.9485 15.42 36.0075 15.403 36.0618 15.3782ZM35.1221 16.8012C35.0959 16.7172 35.0834 16.6296 35.0849 16.5416C35.0962 16.4912 35.1169 16.4432 35.1458 16.4002C35.1745 16.3552 35.2116 16.3154 35.2556 16.2802C35.3549 16.2028 35.4776 16.1612 35.6037 16.1622C35.7609 16.1622 35.8792 16.2104 35.962 16.3054C36.0449 16.4018 36.0855 16.5216 36.0855 16.6664C36.0855 16.738 36.0718 16.803 36.0483 16.8628C36.0255 16.9218 35.991 16.9756 35.9468 17.0211C35.9027 17.0665 35.8499 17.1027 35.7914 17.1274C35.7306 17.154 35.6645 17.1674 35.5902 17.1674C35.5159 17.1674 35.4482 17.1524 35.3858 17.1224C35.3237 17.093 35.2688 17.0504 35.2251 16.9976C35.1793 16.9388 35.1444 16.8723 35.1221 16.8012ZM38.416 15.8992H38.1489V17.3804H38.416V15.8992ZM36.7528 15.8992H37.02V16.3436H37.2668C37.3833 16.3436 37.4779 16.3586 37.554 16.3868C37.6301 16.4152 37.691 16.4534 37.7365 16.5C37.7821 16.5466 37.8143 16.6016 37.833 16.663C37.8514 16.7246 37.8617 16.7878 37.8617 16.8544C37.8617 16.921 37.8514 16.9844 37.8295 17.0476C37.8093 17.1108 37.7737 17.1656 37.7263 17.2156C37.6791 17.2656 37.6148 17.3056 37.5337 17.3356C37.4526 17.3654 37.3546 17.382 37.2363 17.382H36.7512V15.8992H36.7528ZM37.02 16.5914V17.134H37.2144C37.3479 17.134 37.4425 17.1108 37.4965 17.064C37.5508 17.0174 37.5777 16.951 37.5777 16.8628C37.5777 16.7728 37.549 16.7048 37.4949 16.658C37.4391 16.6114 37.3461 16.588 37.2178 16.588H37.02V16.5914Z" fill="#4F4255"/>
<path d="M40.1818 17.1674C40.1176 17.249 40.033 17.3106 39.9316 17.3522C39.8275 17.3943 39.7162 17.4158 39.6038 17.4154C39.4921 17.4169 39.381 17.3983 39.2759 17.3606C39.1814 17.3265 39.0951 17.2732 39.0224 17.2042C38.9506 17.135 38.8941 17.0516 38.8567 16.9594C38.8165 16.8583 38.7965 16.7503 38.7977 16.6416C38.7977 16.5336 38.8161 16.4336 38.8551 16.3388C38.8923 16.2438 38.9463 16.1624 39.014 16.094C39.0816 16.0242 39.1626 15.971 39.254 15.9294C39.3503 15.8871 39.4546 15.8661 39.5598 15.8678C39.6797 15.8678 39.7914 15.8828 39.8928 15.9126C39.9942 15.9426 40.0804 15.9926 40.1513 16.0626L40.028 16.2706C39.9683 16.2167 39.8981 16.1759 39.8217 16.1506C39.7491 16.1273 39.6733 16.1155 39.597 16.1158C39.5295 16.1158 39.4652 16.129 39.4026 16.154C39.3411 16.1787 39.2849 16.2148 39.2371 16.2606C39.1885 16.3079 39.15 16.3645 39.1238 16.427C39.0951 16.4918 39.0816 16.5634 39.0816 16.6432C39.0816 16.7248 39.0967 16.798 39.1254 16.8612C39.1541 16.9262 39.1931 16.9812 39.2421 17.0276C39.2911 17.0744 39.3486 17.1092 39.4144 17.1326C39.4805 17.1558 39.5498 17.1692 39.6241 17.1692C39.7153 17.1692 39.7964 17.1508 39.8691 17.1158C39.9394 17.082 40.0025 17.0351 40.0551 16.9778L40.1818 17.1674ZM40.3186 15.8994H41.6893V16.1624H41.1382V17.3804H40.8713V16.1624H40.3204V15.8994H40.3186Z" fill="#4F4255"/>
<path fill-rule="evenodd" clip-rule="evenodd" d="M42.2466 15.8995H41.9795V18.0395H42.2466V17.3123C42.3006 17.3473 42.3649 17.3723 42.4392 17.3889C42.5135 17.4055 42.5912 17.4137 42.6708 17.4137C42.7891 17.4137 42.8955 17.3921 42.9919 17.3523C43.0844 17.3129 43.1682 17.2558 43.2385 17.1843C43.3078 17.1125 43.3602 17.0293 43.3974 16.9311C43.4346 16.8331 43.4532 16.7281 43.4532 16.6167C43.4532 16.5067 43.4364 16.4053 43.4042 16.3137C43.374 16.2267 43.3269 16.1464 43.2657 16.0775C43.2056 16.0102 43.131 15.9573 43.0475 15.9227C42.9563 15.8836 42.8578 15.8643 42.7585 15.8661C42.6539 15.8661 42.5559 15.8861 42.4629 15.9261C42.3699 15.9661 42.2972 16.0141 42.2466 16.0741V15.8995ZM42.4326 16.1741C42.5087 16.1341 42.5914 16.1141 42.681 16.1141C42.7587 16.1141 42.828 16.1257 42.8907 16.1507C42.9515 16.1757 43.0022 16.2107 43.0445 16.2573C43.0867 16.3039 43.1188 16.3573 43.1391 16.4203C43.161 16.4835 43.1713 16.5519 43.1713 16.6267C43.1713 16.7067 43.1576 16.7781 43.1341 16.8447C43.112 16.9078 43.0768 16.9657 43.0309 17.0145C42.9847 17.0627 42.9289 17.1007 42.867 17.1259C42.798 17.1547 42.7237 17.1688 42.6489 17.1675C42.5764 17.1675 42.5087 17.1593 42.4444 17.1427C42.3741 17.1236 42.3073 17.0932 42.2468 17.0527V16.3187C42.294 16.2623 42.3567 16.2141 42.4326 16.1741ZM45.5016 15.8993H45.2345V17.3805H45.5016V15.8993ZM43.8368 15.8993H44.1039V16.3437H44.3506C44.4673 16.3437 44.5619 16.3587 44.638 16.3869C44.7141 16.4153 44.7749 16.4535 44.8205 16.5001C44.8661 16.5467 44.8983 16.6017 44.9167 16.6631C44.9354 16.7247 44.9455 16.7879 44.9455 16.8545C44.9455 16.9211 44.9354 16.9845 44.9135 17.0477C44.8932 17.1109 44.8577 17.1657 44.8103 17.2157C44.7631 17.2657 44.6988 17.3057 44.6177 17.3357C44.5365 17.3655 44.4385 17.3821 44.3202 17.3821H43.8352V15.8993H43.8368ZM44.1058 16.5915V17.1341H44.3002C44.4335 17.1341 44.5283 17.1109 44.5823 17.0641C44.6364 17.0175 44.6635 16.9511 44.6635 16.8629C44.6635 16.7729 44.6348 16.7049 44.5807 16.6581C44.5249 16.6115 44.4319 16.5881 44.3036 16.5881H44.1058V16.5915Z" fill="#4F4255"/>
<path d="M46.7831 16.6133L47.3543 17.3805H47.0265L46.5853 16.7813L46.1374 17.3805H45.8265L46.3943 16.6265L45.8603 15.8993H46.1882L46.5955 16.4585L47.0095 15.8993H47.3206L46.7831 16.6133ZM23.322 19.2111H22.5023V20.4459H22.2352V18.9649H23.5889V20.4459H23.322V19.2111ZM25.1048 19.2277H24.5776L24.5605 19.4773C24.542 19.6887 24.5167 19.8585 24.4812 19.9881C24.4456 20.1181 24.4017 20.2179 24.351 20.2877C24.3004 20.3577 24.2412 20.4059 24.1735 20.4293C24.1037 20.4545 24.0299 20.4669 23.9556 20.4659L23.9353 20.2095C23.964 20.2111 23.9978 20.2045 24.0349 20.1879C24.0723 20.1713 24.1094 20.1347 24.1448 20.0799C24.1803 20.0231 24.2125 19.9433 24.2412 19.8401C24.2699 19.7353 24.2886 19.5989 24.2986 19.4273L24.3257 18.9663H25.3719V20.4475H25.1048V19.2277Z" fill="#4F4255"/>
<path fill-rule="evenodd" clip-rule="evenodd" d="M26.0916 18.9682C26.0052 18.9914 25.9275 19.0246 25.8616 19.0662L25.9327 19.276C25.9936 19.246 26.0544 19.221 26.1151 19.1994C26.1759 19.1778 26.2539 19.1678 26.3467 19.1678C26.4212 19.1678 26.4802 19.1794 26.5258 19.2026C26.5716 19.2244 26.6053 19.2576 26.629 19.2976C26.6525 19.3376 26.6678 19.3876 26.6762 19.4456C26.6847 19.504 26.6881 19.5672 26.6881 19.6354C26.6334 19.5976 26.5711 19.572 26.5055 19.5606C26.4421 19.5481 26.3776 19.5414 26.3129 19.5406C26.2336 19.5406 26.1591 19.5522 26.0882 19.5722C26.0171 19.5922 25.9562 19.6222 25.9072 19.6622C25.8572 19.7022 25.8168 19.7527 25.7889 19.8102C25.7592 19.8732 25.7443 19.9421 25.7452 20.0116C25.7452 20.1562 25.7873 20.2696 25.8719 20.3494C25.9562 20.4292 26.0679 20.4692 26.2065 20.4692C26.3316 20.4692 26.4312 20.4476 26.5073 20.4042C26.5832 20.361 26.6441 20.311 26.6881 20.2544V20.4458H26.9383V19.5372C26.9383 19.3442 26.8959 19.1944 26.8098 19.0896C26.7252 18.9846 26.5748 18.9316 26.3619 18.9316C26.2706 18.9317 26.1797 18.9442 26.0916 18.9682ZM26.5395 20.1678C26.4788 20.2112 26.3993 20.2312 26.3013 20.2312C26.2133 20.2312 26.1474 20.2096 26.1002 20.1678C26.0528 20.1246 26.0291 20.068 26.0291 19.9982C26.0291 19.9566 26.0376 19.9216 26.0562 19.89C26.0747 19.8584 26.1002 19.8334 26.129 19.8134C26.1577 19.7934 26.193 19.7784 26.232 19.7684C26.2706 19.7585 26.3104 19.7535 26.3503 19.7536C26.482 19.7536 26.5953 19.7852 26.6883 19.8516V20.0396C26.6444 20.0885 26.5944 20.1316 26.5395 20.1678Z" fill="#4F4255"/>
<path d="M27.2003 18.965H28.571V19.2278H28.0199V20.446H27.753V19.228H27.2021V18.965H27.2003Z" fill="#4F4255"/>
<path fill-rule="evenodd" clip-rule="evenodd" d="M29.8188 20.431C29.9202 20.3994 30.0064 20.351 30.0807 20.2846L29.9996 20.0782C29.9506 20.1216 29.8847 20.1582 29.8052 20.1882C29.7258 20.2182 29.6363 20.233 29.5382 20.233C29.3912 20.233 29.2695 20.1948 29.1731 20.1166C29.0767 20.0384 29.0245 19.9286 29.0127 19.7886H30.1687C30.1803 19.7372 30.1855 19.6788 30.1855 19.6106C30.1855 19.5092 30.1669 19.4176 30.1297 19.3344C30.0951 19.2536 30.0445 19.1806 29.9809 19.1198C29.9167 19.0593 29.8408 19.0123 29.758 18.9816C29.6712 18.9481 29.5789 18.9311 29.4858 18.9316C29.3607 18.9316 29.2509 18.9532 29.1547 18.9932C29.0636 19.0312 28.9814 19.0872 28.9128 19.158C28.8463 19.2283 28.795 19.3116 28.7624 19.4026C28.7268 19.4995 28.709 19.6021 28.71 19.7054C28.71 19.822 28.7303 19.9284 28.7674 20.0234C28.8048 20.1182 28.8604 20.1998 28.9297 20.268C28.999 20.3362 29.0836 20.3878 29.1834 20.4244C29.2902 20.4622 29.4028 20.4808 29.5162 20.4794C29.616 20.4794 29.7174 20.4626 29.8188 20.431ZM29.1412 19.2894C29.2239 19.2146 29.3338 19.178 29.4724 19.178C29.6043 19.178 29.7074 19.2146 29.7835 19.2828C29.8594 19.3528 29.9 19.4492 29.9068 19.5724H28.9942C29.0071 19.4634 29.0593 19.3628 29.1412 19.2894ZM30.3157 18.965H30.6537L31.169 19.679L30.6181 20.446H30.2904L30.8682 19.6788L30.3157 18.965ZM31.2349 18.965H31.502V20.446H31.2349V18.965ZM32.4568 20.446L31.8688 19.6788L32.418 18.9648H32.0867L31.5679 19.6788L32.1256 20.446H32.4568ZM33.6771 20.431C33.7785 20.3994 33.8647 20.351 33.939 20.2846L33.8578 20.0782C33.8088 20.1216 33.743 20.1582 33.6636 20.1882C33.5841 20.2182 33.4945 20.233 33.3965 20.233C33.2495 20.233 33.1278 20.1948 33.0314 20.1166C32.9352 20.0384 32.8828 19.9286 32.8709 19.7886H34.027C34.0388 19.7372 34.0438 19.6788 34.0438 19.6106C34.0438 19.5092 34.0253 19.4176 33.988 19.3344C33.9534 19.2536 33.9028 19.1807 33.8394 19.1198C33.7751 19.0593 33.6992 19.0123 33.6162 18.9816C33.5295 18.948 33.4372 18.9311 33.3441 18.9316C33.2192 18.9316 33.1093 18.9532 33.0129 18.9932C32.922 19.0312 32.8398 19.0873 32.7713 19.158C32.7046 19.2282 32.6534 19.3115 32.6209 19.4026C32.5852 19.4995 32.5674 19.6021 32.5685 19.7054C32.5685 19.822 32.5888 19.9284 32.6259 20.0234C32.6631 20.1182 32.7189 20.1998 32.7882 20.268C32.8575 20.3362 32.9418 20.3878 33.0416 20.4244C33.1485 20.4622 33.2612 20.4808 33.3746 20.4794C33.4773 20.4786 33.5793 20.4623 33.6771 20.431ZM32.9995 19.2894C33.0824 19.2146 33.1923 19.178 33.3308 19.178C33.461 19.178 33.5656 19.2146 33.6417 19.2828C33.7179 19.3528 33.7584 19.4492 33.7651 19.5724H32.8525C32.8653 19.4634 32.9176 19.3628 32.9995 19.2894ZM35.1273 18.4674C34.9701 18.4674 34.8839 18.3808 34.8705 18.2078H34.6186C34.6186 18.2742 34.6305 18.3342 34.6524 18.3908C34.6744 18.4474 34.7066 18.4956 34.7488 18.5356C34.7909 18.5756 34.8452 18.6072 34.9076 18.632C34.9701 18.657 35.0428 18.6686 35.1255 18.6686C35.2016 18.6686 35.2693 18.657 35.3302 18.632C35.391 18.6088 35.4416 18.5756 35.4856 18.5356C35.5278 18.4956 35.5617 18.4474 35.5852 18.3908C35.6089 18.3342 35.6208 18.2742 35.6208 18.2078H35.3708C35.3589 18.3808 35.276 18.4674 35.1273 18.4674ZM34.4055 18.9648V20.446H34.6726L35.5413 19.3426V20.446H35.8084V18.9648H35.5413L34.6726 20.0682V18.9648H34.4055Z" fill="#4F4255"/>
</g>
<defs>
<clipPath id="clip0_1_64">
<rect width="48" height="24" fill="white" transform="translate(0.5 0.5)"/>
</clipPath>
</defs>
</svg>
