<svg width="49" height="25" fill="none" xmlns="http://www.w3.org/2000/svg"><g clip-path="url(#clip0_1_64)" fill="#4F4255"><path d="M42.006 7.35v5.868h-2.104V9.102h-2.026v4.116h-2.103V7.35h6.233z"/><path fill-rule="evenodd" clip-rule="evenodd" d="M31.451 13.428c1.883 0 3.282-1.15 3.282-2.893 0-1.688-1.032-2.783-2.756-2.783-.796 0-1.453.279-1.948.76.119-.995.963-1.721 1.894-1.721l1.83-.004.915-1.741s-2.03.046-2.973.046c-2.155.037-3.611 1.988-3.611 4.358 0 2.76 1.42 3.978 3.367 3.978zm.011-4.133c.7 0 1.185.457 1.185 1.24 0 .704-.431 1.284-1.184 1.285-.721 0-1.206-.537-1.206-1.274 0-.782.485-1.251 1.205-1.251z"/><path d="M26.372 11.254s-.497.285-1.24.339c-.852.025-1.613-.511-1.613-1.465 0-.93.671-1.463 1.592-1.463.565 0 1.312.39 1.312.39s.547-.999.83-1.499c-.519-.391-1.21-.606-2.013-.606-2.027 0-3.597 1.317-3.597 3.166 0 1.874 1.476 3.16 3.597 3.12.593-.021 1.412-.229 1.91-.548l-.778-1.434zM.5 5.724l2.919 5.195v3.169L.503 19.273.5 5.724zm11.206 3.305l2.735-1.67 5.597-.005-8.332 5.083V9.029zm-.016-3.336l.016 6.878-2.926-1.79V.5l2.91 5.193z"/><path d="M20.037 7.354l-5.597.005-2.75-1.666L8.78.5l11.257 6.854zm-8.331 11.948v-3.338L8.78 14.21l.002 10.29 2.924-5.198z"/><path d="M14.434 17.647L3.418 10.92.5 5.724l19.526 11.917-5.592.006zM8.782 24.5l2.924-5.199 2.728-1.654 5.592-.006L8.782 24.5zM.503 19.273l8.301-5.064-2.79-1.706-2.596 1.585-2.915 5.185zm23.017-2.106a.605.605 0 01-.25.185.934.934 0 01-.656.008.709.709 0 01-.419-.401.834.834 0 01-.06-.317.79.79 0 01.217-.548.765.765 0 01.546-.226c.12 0 .232.015.333.045s.188.08.258.15l-.123.208a.58.58 0 00-.206-.12.727.727 0 00-.225-.035.517.517 0 00-.515.527.522.522 0 00.16.385c.05.046.107.081.173.105a.584.584 0 00.21.036.551.551 0 00.244-.053.614.614 0 00.186-.138l.127.19zm.348.213V15.9h.267v1.103l.869-1.104h.267v1.482h-.267v-1.104l-.869 1.104h-.267zm3.172-.213a.604.604 0 01-.25.185.933.933 0 01-.656.008.709.709 0 01-.42-.401.832.832 0 01-.058-.317.788.788 0 01.216-.548.778.778 0 01.24-.165.731.731 0 01.306-.061c.12 0 .232.015.333.045.102.03.188.08.259.15l-.124.208a.576.576 0 00-.206-.12.726.726 0 00-.224-.035.508.508 0 00-.473.311.526.526 0 00-.043.216.524.524 0 00.16.385.479.479 0 00.173.105.625.625 0 00.21.036.555.555 0 00.244-.053.613.613 0 00.186-.138l.127.19zm.137-1.268h1.37v.263h-.55v1.218h-.267v-1.218h-.551V15.9h-.002z"/><path fill-rule="evenodd" clip-rule="evenodd" d="M29.795 17.366a.696.696 0 00.262-.147l-.081-.206a.626.626 0 01-.194.11.754.754 0 01-.267.045.56.56 0 01-.366-.117.451.451 0 01-.16-.328h1.156a.794.794 0 00-.039-.454.656.656 0 00-.149-.215.744.744 0 00-.495-.188.855.855 0 00-.331.062.696.696 0 00-.392.41.85.85 0 00-.052.302c0 .117.02.223.057.318a.701.701 0 00.416.401 1.015 1.015 0 00.636.007zm-.676-1.14a.474.474 0 01.331-.112c.13 0 .235.035.311.105.077.07.117.167.124.29h-.913a.451.451 0 01.147-.283z"/><path d="M30.524 15.9h.244l.578.733.547-.734h.237v1.482h-.267V16.3l-.52.687h-.01l-.541-.688v1.08h-.268V15.9z"/><path fill-rule="evenodd" clip-rule="evenodd" d="M32.857 15.904a.845.845 0 00-.23.098l.071.21c.061-.03.122-.055.183-.076a.7.7 0 01.231-.032.4.4 0 01.18.035.237.237 0 01.103.095.41.41 0 01.047.148c.008.058.012.121.012.19a.459.459 0 00-.183-.075.831.831 0 00-.417.012.495.495 0 00-.18.09.427.427 0 00-.163.349c0 .144.042.258.127.338.084.08.196.12.334.12a.605.605 0 00.3-.066.604.604 0 00.182-.15v.192h.25v-.909c0-.193-.042-.342-.128-.447-.085-.105-.235-.158-.448-.158a1.03 1.03 0 00-.27.036zm.447 1.2a.403.403 0 01-.239.063.296.296 0 01-.2-.063.219.219 0 01-.072-.17c0-.041.009-.076.027-.108a.245.245 0 01.073-.076.323.323 0 01.103-.045.565.565 0 01.456.083v.188a.768.768 0 01-.148.128zm2.758-1.726a.41.41 0 00.152-.128l-.146-.208a.293.293 0 01-.126.103.8.8 0 01-.156.044l-.05.009-.142.024c-.082.015-.161.04-.237.073a.75.75 0 00-.289.21.984.984 0 00-.17.298 1.56 1.56 0 00-.078.344c-.014.12-.02.235-.02.345 0 .141.018.27.055.384.037.115.09.211.159.29.07.08.152.14.25.183a.812.812 0 00.331.065.798.798 0 00.313-.062.753.753 0 00.46-.699.896.896 0 00-.05-.303.62.62 0 00-.36-.381.774.774 0 00-.478-.028.732.732 0 00-.309.18.49.49 0 00-.098.141h-.007c.005-.068.014-.138.029-.21a1.03 1.03 0 01.066-.204.713.713 0 01.111-.177.507.507 0 01.176-.125.937.937 0 01.232-.074l.053-.01.151-.029a.823.823 0 00.178-.055zm-.94 1.423a.824.824 0 01-.037-.26.496.496 0 01.17-.261.56.56 0 01.349-.118c.157 0 .275.048.358.143a.533.533 0 01.123.361.531.531 0 01-.037.197.47.47 0 01-.257.264.493.493 0 01-.566-.13.623.623 0 01-.103-.196zm3.294-.902h-.267v1.481h.267V15.9zm-1.663 0h.267v.445h.247c.116 0 .21.015.287.043a.49.49 0 01.182.113.395.395 0 01.097.163.663.663 0 01.029.191c0 .067-.01.13-.032.194a.436.436 0 01-.104.168.497.497 0 01-.192.12.86.86 0 01-.298.046h-.485v-1.483h.002zm.267.692v.543h.194c.134 0 .229-.023.282-.07.055-.047.082-.113.082-.201a.258.258 0 00-.083-.205c-.056-.047-.149-.07-.277-.07h-.198v.003z"/><path d="M40.182 17.167a.604.604 0 01-.25.185.934.934 0 01-.656.008.712.712 0 01-.42-.401.835.835 0 01-.058-.317.784.784 0 01.216-.548.776.776 0 01.24-.165.731.731 0 01.306-.061c.12 0 .231.015.333.045.101.03.187.08.258.15l-.123.208a.58.58 0 00-.206-.12.726.726 0 00-.225-.035.518.518 0 00-.515.527.524.524 0 00.16.385.478.478 0 00.172.105.627.627 0 00.21.036.556.556 0 00.245-.053.613.613 0 00.186-.138l.127.19zm.137-1.268h1.37v.263h-.55v1.218h-.268v-1.218h-.55V15.9h-.002z"/><path fill-rule="evenodd" clip-rule="evenodd" d="M42.247 15.9h-.267v2.14h.267v-.728c.054.035.118.06.192.077.075.017.152.025.232.025a.768.768 0 00.568-.23.73.73 0 00.158-.253.88.88 0 00.056-.314.91.91 0 00-.049-.303.703.703 0 00-.138-.236.6.6 0 00-.218-.155.701.701 0 00-.29-.057.738.738 0 00-.295.06.571.571 0 00-.216.148V15.9zm.186.274a.525.525 0 01.248-.06.56.56 0 01.21.037c.06.025.111.06.154.106a.44.44 0 01.094.163.645.645 0 01-.005.424.48.48 0 01-.267.282.542.542 0 01-.218.041.672.672 0 01-.402-.115v-.733a.61.61 0 01.186-.145zm3.069-.275h-.268v1.482h.268v-1.482zm-1.665 0h.267v.445h.247a.83.83 0 01.287.043.492.492 0 01.183.113.392.392 0 01.096.163.653.653 0 01.029.192c0 .066-.01.13-.032.193a.438.438 0 01-.104.168.497.497 0 01-.192.12.86.86 0 01-.298.046h-.485V15.9h.002zm.269.693v.542h.194c.134 0 .228-.023.282-.07.054-.047.081-.113.081-.201 0-.09-.028-.158-.082-.205-.056-.047-.15-.07-.277-.07h-.198v.003z"/><path d="M46.783 16.613l.571.768h-.328l-.44-.6-.449.6h-.31l.567-.755-.534-.727h.328l.407.56.415-.56h.31l-.537.714zm-23.461 2.598h-.82v1.235h-.267v-1.481h1.354v1.48h-.267v-1.234zm1.783.017h-.527l-.017.25a3.001 3.001 0 01-.08.51.935.935 0 01-.13.3.373.373 0 01-.177.141.617.617 0 01-.218.037l-.02-.257a.218.218 0 00.099-.021.278.278 0 00.11-.108.934.934 0 00.096-.24 2.04 2.04 0 00.058-.413l.027-.46h1.046v1.48h-.267v-1.22z"/><path fill-rule="evenodd" clip-rule="evenodd" d="M26.092 18.968a.838.838 0 00-.23.098l.07.21c.062-.03.122-.055.183-.077a.707.707 0 01.232-.031c.074 0 .133.011.179.035.046.021.08.055.103.095a.41.41 0 01.047.148c.009.058.012.121.012.19a.46.46 0 00-.182-.075 1.064 1.064 0 00-.193-.02.822.822 0 00-.225.031.495.495 0 00-.18.09.43.43 0 00-.163.35c0 .144.042.258.127.337.084.08.196.12.334.12a.603.603 0 00.301-.065.603.603 0 00.181-.15v.192h.25v-.909c0-.193-.042-.343-.128-.447-.085-.105-.235-.158-.448-.158-.091 0-.182.012-.27.036zm.448 1.2a.4.4 0 01-.239.063.292.292 0 01-.2-.063.219.219 0 01-.072-.17c0-.041.009-.076.027-.108a.244.244 0 01.073-.077.319.319 0 01.103-.045.567.567 0 01.456.083v.189a.768.768 0 01-.148.128z"/><path d="M27.2 18.965h1.371v.263h-.551v1.218h-.267v-1.218h-.55v-.263H27.2z"/><path fill-rule="evenodd" clip-rule="evenodd" d="M29.819 20.431a.696.696 0 00.262-.146L30 20.078a.626.626 0 01-.195.11.753.753 0 01-.267.045.56.56 0 01-.365-.116.45.45 0 01-.16-.328h1.156a.81.81 0 00-.04-.455.652.652 0 00-.371-.352.854.854 0 00-.603.012.7.7 0 00-.392.41.854.854 0 00-.053.301c0 .117.02.223.057.318a.698.698 0 00.416.401 1.017 1.017 0 00.635.007zm-.678-1.142a.474.474 0 01.331-.111.45.45 0 01.311.105c.076.07.117.166.124.29h-.913a.451.451 0 01.147-.284zm1.175-.324h.338l.515.714-.55.767h-.329l.578-.767-.552-.714zm.919 0h.267v1.481h-.267v-1.481zm1.222 1.481l-.588-.767.549-.714h-.331l-.52.714.559.767h.33zm1.22-.015a.696.696 0 00.262-.146l-.081-.207a.626.626 0 01-.194.11.754.754 0 01-.267.045.56.56 0 01-.366-.116.45.45 0 01-.16-.328h1.156a.799.799 0 00-.039-.455.655.655 0 00-.372-.352.856.856 0 00-.603.012.693.693 0 00-.392.41.85.85 0 00-.053.301c0 .117.02.223.058.318a.7.7 0 00.416.401 1.018 1.018 0 00.636.007zM33 19.289a.475.475 0 01.332-.111c.13 0 .235.037.31.105.077.07.117.166.124.29h-.913a.45.45 0 01.148-.284zm2.128-.822c-.157 0-.243-.086-.257-.26h-.251a.5.5 0 00.033.184.393.393 0 00.097.145c.042.04.096.071.159.096a.585.585 0 00.218.037.533.533 0 00.36-.133.42.42 0 00.1-.145.465.465 0 00.035-.183h-.25c-.012.173-.095.26-.244.26zm-.721.498v1.481h.267l.868-1.103v1.103h.267v-1.481h-.267l-.868 1.103v-1.103h-.267z"/></g><defs><clipPath id="clip0_1_64"><path fill="#fff" transform="translate(.5 .5)" d="M0 0h48v24H0z"/></clipPath></defs></svg>