<svg width="75" height="25" fill="none" xmlns="http://www.w3.org/2000/svg"><g clip-path="url(#clip0_1_86)"><path d="M48.688.537c-5.249 0-9.94 2.718-9.94 7.739 0 5.758 8.32 6.155 8.32 9.049 0 1.218-1.398 2.308-3.785 2.308-3.387 0-5.918-1.523-5.918-1.523l-1.084 5.067s2.916 1.287 6.788 1.287c5.739 0 10.255-2.851 10.255-7.958 0-6.085-8.354-6.471-8.354-9.156 0-.954 1.147-2 3.527-2 2.686 0 4.876 1.109 4.876 1.109l1.06-4.894S52.05.537 48.688.537zM.664.907l-.127.738s2.208.404 4.197 1.21c2.561.923 2.743 1.46 3.175 3.13l4.7 18.097h6.3L28.615.907h-6.286l-6.236 15.757-2.545-13.357C13.315 1.778 12.132.906 10.685.906H.665zm30.479 0l-4.931 23.175h5.994L37.119.907h-5.976zm33.43 0c-1.445 0-2.211.773-2.773 2.123l-8.78 21.052h6.285l1.216-3.509h7.657l.74 3.51h5.546L69.625.906h-5.052zm.818 6.261l1.863 8.697h-4.991l3.128-8.697z" fill="#4F4255"/></g><defs><clipPath id="clip0_1_86"><path fill="#fff" transform="translate(.5 .5)" d="M0 0h74v24H0z"/></clipPath></defs></svg>