<?xml version="1.0" ?><!DOCTYPE svg  PUBLIC '-//W3C//DTD SVG 1.1//EN'  'http://www.w3.org/Graphics/SVG/1.1/DTD/svg11.dtd'><svg enable-background="new 0 0 64 64" height="64px" id="Layer_1" version="1.1" viewBox="0 0 64 64" width="64px" xml:space="preserve" xmlns="http://www.w3.org/2000/svg" xmlns:xlink="http://www.w3.org/1999/xlink"><g><g id="Viadeo"><path d="M50.025,44.109c-3.488,6.513-10.285,10.933-18.097,10.933c-11.369,0-20.585-9.36-20.585-20.908    c0-8.714,5.247-16.182,12.708-19.323c2.681-3.511,6.648-6.9,14.076-8.291c0.694-0.388-4.037-1.259-6.215-1.259    C16.219,5.26,3.5,18.27,3.5,34.318c0,16.051,12.719,29.061,28.411,29.061c15.692,0,28.412-13.01,28.41-29.163    C58.156,38.638,54.877,42.225,50.025,44.109z" fill="#F17250"/><path d="M50.025,44.109c-3.488,6.513-10.285,10.933-18.097,10.933c-11.369,0-20.585-9.36-20.585-20.908    c0-8.714,5.247-16.182,12.708-19.323c2.681-3.511,6.648-6.9,14.076-8.291c0.694-0.388-4.037-1.259-6.215-1.259    C16.219,5.26,3.5,18.27,3.5,34.318c0,16.051,12.719,29.061,28.411,29.061c15.692,0,28.412-13.01,28.41-29.163    C58.156,38.638,54.877,42.225,50.025,44.109z" fill="#F17250"/><path d="M57.874,0.969c0,0-1.626,3.759-18.182,8.18C17.378,15.519,25.6,33.857,27.583,35.511    c14.468-2.115,23.962-16.146,23.962-16.146c0.422-0.577,0.591-0.483,0.343,0.202c0,0-3.327,13.404-22.404,17.535    c-6.701,1.451-8.993,5.84-8.993,5.84l1.557,2.3c4.67-4.423,10.897-4.777,10.897-4.777c37.016,10.085,26.03-39.222,26.03-39.222    C58.833,0.528,58.381,0.418,57.874,0.969z" fill="#E2573B"/></g><path d="M58.734,0.735c-0.213-0.199-0.522-0.132-0.86,0.234c0,0-1.626,3.759-18.182,8.18   C17.378,15.519,25.6,33.857,27.583,35.511c14.468-2.115,23.962-16.146,23.962-16.146c0.422-0.577,0.591-0.483,0.343,0.202" fill="#F17250"/><path d="M49.42,45.156c-3.633,5.933-10.107,9.886-17.492,9.886c-11.369,0-20.585-9.36-20.585-20.908   c0-8.714,5.247-16.182,12.708-19.323c2.65-3.47,6.563-6.818,13.826-8.238c-0.408-0.248-0.823-0.485-1.245-0.716   C35.21,5.542,33.15,5.26,31.912,5.26C16.219,5.26,3.5,18.27,3.5,34.318c0,13.05,8.408,24.089,19.985,27.761   C34.926,61.21,44.651,54.544,49.42,45.156z" fill="#E2573B"/><g><path d="M32.217,55.032c0.314,0,0.625-0.017,0.937-0.031C32.844,55.02,32.532,55.028,32.217,55.032z" fill="#D33F26"/><path d="M30.807,54.984c0.013,0.001,0.028,0.001,0.041,0.002C30.834,54.986,30.82,54.985,30.807,54.984z" fill="#D33F26"/><path d="M11.343,34.134c0-8.714,5.247-16.182,12.708-19.323c2.65-3.47,6.563-6.818,13.826-8.238    c-0.408-0.248-0.823-0.485-1.245-0.716C35.21,5.542,33.15,5.26,31.912,5.26C16.219,5.26,3.5,18.27,3.5,34.318    c0,1.225,0.097,2.424,0.241,3.608c6.539,8.229,14.348,13.916,21.864,16.101C17.332,51.317,11.343,43.44,11.343,34.134z" fill="#B72916"/><path d="M33.309,54.996c2.092-0.112,4.111-0.555,6.016-1.356C37.438,54.38,35.419,54.854,33.309,54.996z" fill="#D33F26"/></g></g></svg>