<svg height="64" width="64" xmlns="http://www.w3.org/2000/svg"><path d="M50.025 44.109c-3.488 6.513-10.285 10.933-18.097 10.933-11.369 0-20.585-9.36-20.585-20.908 0-8.714 5.247-16.182 12.708-19.323 2.681-3.511 6.648-6.9 14.076-8.291.694-.388-4.037-1.259-6.215-1.259C16.219 5.26 3.5 18.27 3.5 34.318c0 16.051 12.719 29.061 28.411 29.061 15.692 0 28.412-13.01 28.41-29.163-2.165 4.422-5.444 8.009-10.296 9.893z" fill="#F17250"/><path d="M50.025 44.109c-3.488 6.513-10.285 10.933-18.097 10.933-11.369 0-20.585-9.36-20.585-20.908 0-8.714 5.247-16.182 12.708-19.323 2.681-3.511 6.648-6.9 14.076-8.291.694-.388-4.037-1.259-6.215-1.259C16.219 5.26 3.5 18.27 3.5 34.318c0 16.051 12.719 29.061 28.411 29.061 15.692 0 28.412-13.01 28.41-29.163-2.165 4.422-5.444 8.009-10.296 9.893z" fill="#F17250"/><path d="M57.874.969s-1.626 3.759-18.182 8.18C17.378 15.519 25.6 33.857 27.583 35.511c14.468-2.115 23.962-16.146 23.962-16.146.422-.577.591-.483.343.202 0 0-3.327 13.404-22.404 17.535-6.701 1.451-8.993 5.84-8.993 5.84l1.557 2.3c4.67-4.423 10.897-4.777 10.897-4.777C69.961 50.55 58.975 1.243 58.975 1.243c-.142-.715-.594-.825-1.101-.274z" fill="#E2573B"/><path d="M58.734.735c-.213-.199-.522-.132-.86.234 0 0-1.626 3.759-18.182 8.18-22.314 6.37-14.092 24.708-12.109 26.362 14.468-2.115 23.962-16.146 23.962-16.146.422-.577.591-.483.343.202" fill="#F17250"/><path d="M49.42 45.156c-3.633 5.933-10.107 9.886-17.492 9.886-11.369 0-20.585-9.36-20.585-20.908 0-8.714 5.247-16.182 12.708-19.323 2.65-3.47 6.563-6.818 13.826-8.238a31.665 31.665 0 00-1.245-.716c-1.422-.315-3.482-.597-4.72-.597C16.219 5.26 3.5 18.27 3.5 34.318c0 13.05 8.408 24.089 19.985 27.761 11.441-.869 21.166-7.535 25.935-16.923z" fill="#E2573B"/><path d="M32.217 55.032c.314 0 .625-.017.937-.031-.31.019-.622.027-.937.031zm-1.41-.048l.041.002a.536.536 0 01-.041-.002z" fill="#D33F26"/><path d="M11.343 34.134c0-8.714 5.247-16.182 12.708-19.323 2.65-3.47 6.563-6.818 13.826-8.238a31.665 31.665 0 00-1.245-.716c-1.422-.315-3.482-.597-4.72-.597C16.219 5.26 3.5 18.27 3.5 34.318c0 1.225.097 2.424.241 3.608 6.539 8.229 14.348 13.916 21.864 16.101-8.273-2.71-14.262-10.587-14.262-19.893z" fill="#B72916"/><path d="M33.309 54.996c2.092-.112 4.111-.555 6.016-1.356a20.162 20.162 0 01-6.016 1.356z" fill="#D33F26"/></svg>